/* XPM */
static char * ducky_xpm[] = {
"126 32 191 2",
"  	c None",
". 	c #CAA965",
"+ 	c #BE994C",
"@ 	c #BE9B50",
"# 	c #DAC497",
"$ 	c #CBAC6B",
"% 	c #E2C384",
"& 	c #E8CD93",
"* 	c #E7CC91",
"= 	c #CEB176",
"- 	c #CAAE72",
"; 	c #FED379",
"> 	c #F4CC79",
", 	c #D7B878",
"' 	c #D6C093",
") 	c #A77817",
"! 	c #AA7C1C",
"~ 	c #CEB37B",
"{ 	c #B5892E",
"] 	c #F6CA6E",
"^ 	c #FDC95C",
"/ 	c #FFC84E",
"( 	c #FBC34E",
"_ 	c #FFD069",
": 	c #E2B24E",
"< 	c #B48524",
"[ 	c #D8B773",
"} 	c #C39D4D",
"| 	c #D2B884",
"1 	c #D6B571",
"2 	c #D6B46E",
"3 	c #B78C33",
"4 	c #F1B945",
"5 	c #8B7034",
"6 	c #A28B59",
"7 	c #E9B953",
"8 	c #FDC552",
"9 	c #FFC954",
"0 	c #DCA837",
"a 	c #D8B56C",
"b 	c #FFDB8E",
"c 	c #FFDC93",
"d 	c #E7C377",
"e 	c #D2AE65",
"f 	c #E1BC70",
"g 	c #EEB94A",
"h 	c #211D14",
"i 	c #6E747C",
"j 	c #E4BA62",
"k 	c #E5A242",
"l 	c #D28635",
"m 	c #C26D28",
"n 	c #B7763E",
"o 	c #DDB5A2",
"p 	c #B98D32",
"q 	c #F6D184",
"r 	c #F5C052",
"s 	c #D4AC5A",
"t 	c #CDA95E",
"u 	c #BC9443",
"v 	c #BC8C29",
"w 	c #D7AB51",
"x 	c #454A48",
"y 	c #EBAB45",
"z 	c #D37037",
"A 	c #C55925",
"B 	c #CB7247",
"C 	c #CD8969",
"D 	c #E0BEAE",
"E 	c #B78527",
"F 	c #D8A946",
"G 	c #9E8242",
"H 	c #D5A33B",
"I 	c #AD7E20",
"J 	c #FFE197",
"K 	c #FFE09C",
"L 	c #FDDE9B",
"M 	c #BB8A26",
"N 	c #F3BD4B",
"O 	c #B89448",
"P 	c #D29E33",
"Q 	c #D3BB8B",
"R 	c #6E6043",
"S 	c #4A473D",
"T 	c #D5A94C",
"U 	c #D86935",
"V 	c #FF874B",
"W 	c #F89869",
"X 	c #FFB58F",
"Y 	c #E6C8B9",
"Z 	c #CDA247",
"` 	c #101D26",
" .	c #E3AD3D",
"..	c #C6862B",
"+.	c #A96A1A",
"@.	c #C0963E",
"#.	c #FED685",
"$.	c #16232E",
"%.	c #898F94",
"&.	c #EFC05C",
"*.	c #C49563",
"=.	c #FFE3A5",
"-.	c #D4622B",
";.	c #F47B40",
">.	c #F3793E",
",.	c #E16C35",
"'.	c #B45C32",
").	c #3E423E",
"!.	c #F0B34A",
"~.	c #C66A2A",
"{.	c #C45923",
"].	c #B4521D",
"^.	c #BA5E32",
"/.	c #B9633A",
"(.	c #C4922C",
"_.	c #CAA24D",
":.	c #AD7720",
"<.	c #EBB54A",
"[.	c #BB5221",
"}.	c #B65A29",
"|.	c #EEB847",
"1.	c #CF8232",
"2.	c #C85720",
"3.	c #C68464",
"4.	c #FBC75A",
"5.	c #BC6523",
"6.	c #F87D42",
"7.	c #F89C70",
"8.	c #F8B898",
"9.	c #DC8459",
"0.	c #AD4A19",
"a.	c #C99531",
"b.	c #DB8A62",
"c.	c #C27753",
"d.	c #D5A134",
"e.	c #AF5319",
"f.	c #B25324",
"g.	c #CD5C25",
"h.	c #D25E26",
"i.	c #AA4718",
"j.	c #2D3130",
"k.	c #B14C1B",
"l.	c #E6B143",
"m.	c #DAA536",
"n.	c #C59532",
"o.	c #DBA639",
"p.	c #E1AD41",
"q.	c #FDCB63",
"r.	c #F7DEAA",
"s.	c #F2D9A3",
"t.	c #E9743B",
"u.	c #F98045",
"v.	c #AB4615",
"w.	c #D69B35",
"x.	c #C08F2A",
"y.	c #AC751F",
"z.	c #C18E23",
"A.	c #AF8123",
"B.	c #B75C1F",
"C.	c #DDCBA4",
"D.	c #B88D3A",
"E.	c #C5A259",
"F.	c #F3D79C",
"G.	c #F7C04E",
"H.	c #EBB545",
"I.	c #C4A562",
"J.	c #FDCD69",
"K.	c #FDD175",
"L.	c #E5C98D",
"M.	c #BA861C",
"N.	c #D19C2D",
"O.	c #FFD066",
"P.	c #C49B46",
"Q.	c #C59227",
"R.	c #CE9C32",
"S.	c #CA962B",
"T.	c #CD992C",
"U.	c #F9D587",
"V.	c #DDA93B",
"W.	c #C89F4B",
"X.	c #DECDAA",
"Y.	c #C19F58",
"Z.	c #E2D3B2",
"`.	c #B37A22",
" +	c #B57B25",
".+	c #D97646",
"++	c #A63D0A",
"@+	c #D3AD87",
"#+	c #D16027",
"$+	c #D77240",
"%+	c #BD6F49",
"                                                                                                                                                                                                                                                            ",
"                                                                                                                                                                                                                                                            ",
"                                                                                                                                                                                                                                                            ",
"                                                                                                                                                                                                                          . + + + @ + #                     ",
"                                                                                                                                                                                                                        $ % & * * * & = #                   ",
"                                                                                                                                                                                                                      - % ; ; ; ; ; ; > , '                 ",
"                              ) ) ) ) ! ) !                                                                                                                 ~ ~ ~ = = ~ -                                             { ] ^ / / ( ( ( _ : $                 ",
"                            < [ [ [ [ [ [ , }                                                                                                             | 1 2 2 2 2 2 2 ,                                           3 4 5 6 7 8 9 9 9 0 -                 ",
"                          3 a b b c b b b c d }                                                                                                         ' e b b c b b b c f ,                                         3 g h i j 8 k l l m n o               ",
"                          p q r ( 8 ( ( ( ( ; s )                                       { t t t t t t e e u                                             v b 8 ( ( ( ( ( ( ; w |                                       3 g h x s y z A A z B C D             ",
"                          E F G f ^ 8 8 8 9 8 H I                                       e J K L K J J K K [ u                                           M N O d 9 8 8 8 8 9 P Q                                       3 N R S T m U V V W X W B Y           ",
"                          E Z ` i 7 8 8 y  .k ..+.                                    @.c 8 8 8 8 8 ( ( / #.s )                                         v : $.%.&.8 9 y  .k ..*.                                      3 N J =._ m -.;.;.>.;.;.,.'.          ",
"                          v : x ).: 8 !.~.{.].^./.^.                                  (.N _.[ &.8 8 8 8 8 9 P :.                                        v : x x : 9 <.~.[.[.}.^.C                                     { |.8 ( 8 1.{.2.A {.2.{.A 3.          ",
"                          v 4.=.=.4.8 5.,.6.6.7.8.9.0.                                (.F $.6 r 8 8 !.y !.!.a.+.                                        M 4.=.=.^ 8 5.,.6.6.W 8.b.c.                                  + d.4 8 8 9 1.e.].f././.3.            ",
"                          M N 8 9 8 8 m 2.g.h.g.g.g.2.i.                              (.T j.j.7 9 !.~.k.f.].f.}.f.                                      v 8 8 9 4.8 m {.h.h.g.g.g.A 3.                                  + P N ( ( l.m.n.|                   ",
"                          < o.( 8 8 8 p.5.k.0.0.0.0.0.                                (.q.r.s.4.8 5.t.u.6.6.7.8.b.v.                                    3 o.N 8 8 8  .5.k.0.f.}.f.3.                            3 3 u     u d.0 0 0 M Q                     ",
"                            < o.8 8 ( ( o.w.x.y.                                      v 8 4.4.8 N }.h.-.-.h.-.-.-.{.v.                                    p 0 ( 8 ( (  .w.E                                   } r.r.s.+   u P o.o.0 z.Q                     ",
"                  A.A.<       < 0 o. . .o.x.                                          M  .8 8 8 9 w.B.k.k.k.k.k.k.0.                          C.D.D.$       { 0 o.o. .o.z.                                  E.c 4.^ q.F.+ <.( G.( H.M Q                     ",
"                t s.s.% !     < d.0 0 o.0 v                                             M  .( 8 8 N m.w.w.E +.                              # e s.s.% I.    { 0 0 m.0 0 M                                   (.q.4 v v q.g L =.J.( 8  .n.Q                   ",
"              e q J.J.K.L.! < H.N N N N  .v                                 A.! ! I       v  . . . .0 m.(.<                               Q 1 q J.J.K.L.@ } l.N N N (  .M.                                  (.4 n.<.<.8 8 J.J.c K.( 8 N.~                   ",
"            ! T O.l.v H J.l.<.L L ^ 8 8 ( o.v                             2 & * & a )     < d.m.0 m.m.0 v                                 ~ F O.l.M H ] l.: L L ^ 8 8 N H P.                                x.H.v 8 8 8 8 8 ( J.^ 8 9 d.~                   ",
"            ! H l.H F H.8 8 ^ K.; c ^ 8 8 ( a.a.                      ! 2 q ; ; ; q 1 ! M p.4 4 4 4 4  .M                                 ~ P l.d.F l.8 8 9 K.; c q.8 8 ( Q.                                (.H.v 8 8 8 8 8 8 8 8 8 9 d.~                   ",
"            I o.o.n.9 8 8 8 8 ( 8 K.^ 8 9 9 R.n.                      ! j O. .S.(.: ] o.: c c b ^ 8 8 N d.M                               ~ m.H S.9 9 8 8 8 ( ( ; ^ 8 8 9 T.                                M o.v 8 8 8 8 8 8 8 8 8 N S.~                   ",
"            I R.R.a.9 8 8 8 8 8 8 8 8 8 9 N n.v                       I  .p.H H H l.8 8 ^ #.U.#.b ^ 8 8 N a.                              ~ T.R.R.9 8 8 8 8 8 8 ( 8 8 8 N (.                                M.H S.H 8 9 8 8 8 9  . . .M |                   ",
"            I (.P a.l.9 9 9 9 8 9 8 V.l.H. .x.v                       ! H.n.H ^ 9 9 8 8 8 ( ( 8 #.^ 8 9 G.n.                              ~ z.P a.p.9 9 9 8 8 9 8 V.l.4  .M.                                $ S.0 x.H H H H H H (.N.o.z.~                   ",
"              v d.P n.V.V.V.o.F o.F (.P 0 R.M                         I V.d.R.g 9 8 8 9 9 8 9 9 8 p.H.4  .v                                 _.N.P n.V.V.V.V.F V.V.(.P 0 T.E.                                  . S.0 x.x.x.v (.v d.o.N._.C.                  ",
"                v d.d.M M M v M M M m.o.P M                           A.(.m.S.R.p. . .F p.p.p.p.p.x.P 0 P v                                   W.N.P M M v v v M v m.o.N._.                                      t S.S.S.T.S.S.T.T.S.W.X.                    ",
"                  v R.R.P R.P R.R.P N.P M                                 (.0 a.M M M M M < M M M m.0 P M                                       P.N.P R.P T.T.R.P R.T.}                                           I.I.I.E.E.E.I.E.Y.Z.                      ",
"                    `.`.`.`.I A.I y.y.I                                     (.P P P P P R.d.P P P P P M                                           D.`.`. +Y.Y.+ :.:.u                                                                                       ",
"                      h.h.h.      i.i.                                        A.< `.`.`.`.`.I I y.y.I                                               2.h..+      '.i.                                              h.h.U       c.++@+                        ",
"                      #+h.-.h.    0.i.0.                                          #+#+#+#+    i.0.i.                                                U $+$+.+    %+'.'.                                            z $+$+.+    3.'.'.o                       ",
"                                                                                                                                                                                                                                                            "};
