/* XPM */
static char *_303b3b43db547cce51118c57b15b8eaHKfuhC0aQonPnygh[] = {
/* columns rows colors chars-per-pixel */
"64 64 8 1 ",
"  c None",
". c #2D1C13",
"X c #781111",
"o c #BC1313",
"O c #ED7D7D",
"+ c #B68C1D",
"@ c #D4C51E",
"# c #F1E66F",
/* pixels */
"                                                                ",
"                                                                ",
"                                                                ",
"                                                                ",
"                                                                ",
"                                                                ",
"              ..........                ..........              ",
"              ..........                ..........              ",
"            ..######@@@@..  ........  ..@@@@######..            ",
"            ..######@@@@..  ........  ..@@@@######..            ",
"            ..##@@....@@@@..########..@@@@....@@##..            ",
"            ..##@@....@@@@..########..@@@@....@@##..            ",
"              ..@@@@@@....++@@@@@@@@++....@@@@@@..              ",
"              ..@@@@@@....++@@@@@@@@++....@@@@@@..              ",
"                ....++@@@@++++@@@@++++@@@@++....                ",
"                ....++@@@@++++@@@@++++@@@@++....                ",
"      ....................................................      ",
"      ....................................................      ",
"      ..OOOOOO######OOOOOOOOOOOOOOoooooooooooo@@++ooooXX..      ",
"      ..OOOOOO######OOOOOOOOOOOOOOoooooooooooo@@++ooooXX..      ",
"      ..OOoooo##@@@@ooooooooooooooXXXXXXXXXXXX@@++XXXXXX..      ",
"      ..OOoooo##@@@@ooooooooooooooXXXXXXXXXXXX@@++XXXXXX..      ",
"      ..oooooo##@@++ooooooooooooooXXXXXXXXXXXX@@++XXXXXX..      ",
"      ..oooooo##@@++ooooooooooooooXXXXXXXXXXXX@@++XXXXXX..      ",
"      ..oooooo##@@++ooooooooooooooXXXXXXXXXXXX@@++XXXXXX..      ",
"      ..oooooo##@@++ooooooooooooooXXXXXXXXXXXX@@++XXXXXX..      ",
"      ..oooooo##@@++ooooooooooooooXXXXXXXXXXXX@@++XXXXXX..      ",
"      ..oooooo##@@++ooooooooooooooXXXXXXXXXXXX@@++XXXXXX..      ",
"      ..oooooo##@@++ooooooooooooooXXXXXXXXXXXX@@++XXXXXX..      ",
"      ..oooooo##@@++ooooooooooooooXXXXXXXXXXXX@@++XXXXXX..      ",
"      ..oooooo@@@@++ooooooooooooooXXXXXXXXXXXX@@++XXXXXX..      ",
"      ..oooooo@@@@++ooooooooooooooXXXXXXXXXXXX@@++XXXXXX..      ",
"      ..oooooo@@@@++ooooooooooooooXXXXXXXXXXXX@@++XXXXXX..      ",
"      ..oooooo@@@@++ooooooooooooooXXXXXXXXXXXX@@++XXXXXX..      ",
"      ..oooooo@@@@++ooooooooooooooXXXXXXXXXXXX@@++XXXXXX..      ",
"      ..oooooo@@@@++ooooooooooooooXXXXXXXXXXXX@@++XXXXXX..      ",
"      ..oooooo@@@@++ooooooooooooooXXXXXXXXXXXX@@++XXXXXX..      ",
"      ..oooooo@@@@++ooooooooooooooXXXXXXXXXXXX@@++XXXXXX..      ",
"      ..####@@@@@@++++##########@@@@@@@@@@@@++@@++++@@@@..      ",
"      ..####@@@@@@++++##########@@@@@@@@@@@@++@@++++@@@@..      ",
"      ..@@@@++@@@@++++@@@@@@@@@@@@++++++++++++@@++++++++..      ",
"      ..@@@@++@@@@++++@@@@@@@@@@@@++++++++++++@@++++++++..      ",
"      ..@@@@++@@@@++++@@@@@@@@@@@@++++++++++++++++++++++..      ",
"      ..@@@@++@@@@++++@@@@@@@@@@@@++++++++++++++++++++++..      ",
"      ..oooooo@@@@++ooooooooooooooXXXXXXXXXXXX@@++XXXXXX..      ",
"      ..oooooo@@@@++ooooooooooooooXXXXXXXXXXXX@@++XXXXXX..      ",
"      ..oooooo@@@@++ooooooooooooooXXXXXXXXXXXX@@++XXXXXX..      ",
"      ..oooooo@@@@++ooooooooooooooXXXXXXXXXXXX@@++XXXXXX..      ",
"      ..oooooo@@@@++ooooooooooooooXXXXXXXXXXXX@@++XXXXXX..      ",
"      ..oooooo@@@@++ooooooooooooooXXXXXXXXXXXX@@++XXXXXX..      ",
"      ..oooooo@@@@++ooooooooooooooXXXXXXXXXXXX@@++XXXXXX..      ",
"      ..oooooo@@@@++ooooooooooooooXXXXXXXXXXXX@@++XXXXXX..      ",
"      ..oooooo@@@@++ooooooooooooooXXXXXXXXXXXX@@++XXXXXX..      ",
"      ..oooooo@@@@++ooooooooooooooXXXXXXXXXXXX@@++XXXXXX..      ",
"      ..oooooo@@@@++ooooooooooooooXXXXXXXXXXXX@@++XXXXXX..      ",
"      ..oooooo@@@@++ooooooooooooooXXXXXXXXXXXX@@++XXXXXX..      ",
"      ..oooooo@@@@++ooooooooooooooXXXXXXXXXXXX@@++XXXXXX..      ",
"      ..oooooo@@@@++ooooooooooooooXXXXXXXXXXXX@@++XXXXXX..      ",
"      ....................................................      ",
"      ....................................................      ",
"                                                                ",
"                                                                ",
"                                                                ",
"                                                                "
};
